# xmcd
#
# Track frame offsets:
#	183
#	13533
#	29208
#	44958
#	59208
#	74433
#	86808
#	101433
#	120408
#	136683
#	153408
#	170133
#	185958
#	200283
#
# Disc length: 2896 seconds
#
# Revision: 1
# Processed by: cddbd v1.5.2PL0 Copyright (c) Steve Scherf et al.
# Submitted via: audiograbber 1.83.01
#
DISCID=d60b4e0e
DTITLE=Jonny Hill - Jonny Hill
DYEAR=1996
DGENRE=Country
TTITLE0=Kleine Helden
TTITLE1=Ich kenn das Lied viel zu gut
TTITLE2=War's das schon
TTITLE3=Deine Liebe war so zärtlich
TTITLE4=Leg dein Herz in meine Hände
TTITLE5=Ich bin für die Liebe
TTITLE6=Nur für dich will ich leben
TTITLE7=Was kommt dann
TTITLE8=Eine andere Frau
TTITLE9=Was zum Teufel ist schon Liebe
TTITLE10=Meine Liebe lebt
TTITLE11=Immer und ewig und noch eine Nacht
TTITLE12=Geblendet von der Nacht
TTITLE13=Ihre Hände können sprechen
EXTD=
EXTT0=
EXTT1=
EXTT2=
EXTT3=
EXTT4=
EXTT5=
EXTT6=
EXTT7=
EXTT8=
EXTT9=
EXTT10=
EXTT11=
EXTT12=
EXTT13=
PLAYORDER=
